<mxfile host="app.diagrams.net" modified="2024-05-21T17:03:35.845Z" agent="Mozilla/5.0 (Windows NT 10.0; Win64; x64) AppleWebKit/537.36 (KHTML, like Gecko) Chrome/125.0.0.0 Safari/537.36" version="24.4.4" etag="V4dCvzmQPQaGr-r0jYF7" type="github">
  <diagram name="Page-1" id="PJu4-2BW3u72fT4o170x">
    <mxGraphModel>
      <root>
        <mxCell id="0" />
        <mxCell id="1" parent="0" />
      </root>
    </mxGraphModel>
  </diagram>
</mxfile>
